<svg width="355" height="105" viewBox="0 0 355 105" fill="none" xmlns="http://www.w3.org/2000/svg">
<path d="M65.2466 69.3573C64.4466 66.5973 61.3166 65.2673 58.7666 66.6073C56.7566 67.6673 56.5266 69.3773 55.9966 71.2173C55.3566 73.4573 54.7166 75.6973 54.0866 77.9373C52.8066 82.4173 51.5366 86.8973 50.2566 91.3673C49.2966 94.7273 48.9866 98.0073 45.7166 100.417C43.1766 102.287 40.6166 102.187 37.7666 102.187C36.4366 102.187 35.1066 102.187 33.7766 102.187C30.3366 102.187 27.4967 102.057 24.9067 99.1872C22.8767 96.9272 22.5466 94.2673 21.7966 91.6073C21.0366 88.9173 20.2766 86.2273 19.5166 83.5373C17.9966 78.1573 16.4766 72.7773 14.9666 67.3973C11.9266 56.6373 8.8966 45.8773 5.8566 35.1073C5.5166 33.8973 2.88661 24.8473 2.79661 23.5473C2.51661 19.4273 5.05665 15.6473 8.96665 14.3373C10.8166 13.7173 16.5666 13.6873 18.4166 13.9773C22.4966 14.6073 25.2566 17.6073 25.9866 21.5773C26.4266 23.9973 26.8766 26.4073 27.3166 28.8273C28.2066 33.6573 29.0866 38.4873 29.9766 43.3173C30.6066 46.7773 31.2466 50.2473 31.8766 53.7073C32.1966 55.4373 32.5066 57.1673 32.8266 58.9073C33.3666 61.8473 36.5266 63.4873 39.2366 62.1873C40.7866 61.4473 41.4266 60.4373 41.7566 58.8073C42.1166 57.0173 42.4766 55.2173 42.8366 53.4273C43.5566 49.8373 44.2766 46.2473 44.9966 42.6673C46.4366 35.4873 47.8866 28.3173 49.3266 21.1373C49.8966 18.2773 51.7866 15.9073 54.4366 14.6973C57.1866 13.4473 59.8466 13.8773 62.6166 13.8773C65.6566 13.8773 68.0166 14.3573 70.2366 16.7173C72.3566 18.9573 72.6666 21.6073 73.3866 24.2973C74.8166 29.6873 76.2366 35.0773 77.6666 40.4673C78.3766 43.1673 79.0866 45.8573 79.8066 48.5573C80.1766 49.9473 80.4766 51.1873 81.7466 52.1473C83.0066 53.1173 84.1266 53.3373 85.6666 52.9273C88.0966 52.2773 88.6366 50.6873 89.1666 48.5573C89.4366 47.4573 89.7066 46.3573 89.9766 45.2673C90.5166 43.0673 91.0666 40.8773 91.6066 38.6773C92.6966 34.2873 93.7766 29.8973 94.8666 25.4973C95.5066 22.9173 95.9466 19.5373 97.7766 17.2573C100.227 14.2273 102.977 13.8773 106.497 13.8773C107.987 13.8773 109.477 13.7673 110.977 13.9273C115.977 14.4373 119.607 18.9073 119.077 23.8973C118.967 24.9573 117.227 30.9373 116.937 31.9373C116.177 34.6273 115.417 37.3073 114.657 39.9973C113.137 45.3673 111.617 50.7473 110.097 56.1173C107.057 66.8673 104.017 77.6073 100.977 88.3573C100.237 90.9673 99.6566 93.6073 98.7466 96.1773C97.8166 98.7973 95.7366 100.837 93.1066 101.727C91.0466 102.427 89.0366 102.207 86.9766 102.207C85.6466 102.207 84.3266 102.207 82.9966 102.207C81.7966 102.207 80.6266 102.237 79.4366 101.957C76.7266 101.307 74.4666 99.4472 73.3066 96.9072C72.4466 95.0272 69.6866 84.7573 69.1266 82.8073C67.8466 78.3073 66.5466 73.8373 65.2466 69.3573Z" fill="black"/>
<path d="M65.2466 58.5573C64.4466 55.7973 61.3166 54.4673 58.7666 55.8073C56.7566 56.8673 56.5266 58.5773 55.9966 60.4173C55.3566 62.6573 54.7166 64.8973 54.0866 67.1373C52.8066 71.6173 51.5366 76.0973 50.2566 80.5673C49.2966 83.9273 48.9866 87.2073 45.7166 89.6173C43.1766 91.4873 40.6166 91.3873 37.7666 91.3873C36.4366 91.3873 35.1066 91.3873 33.7766 91.3873C30.3366 91.3873 27.4967 91.2573 24.9067 88.3873C22.8767 86.1273 22.5466 83.4673 21.7966 80.8073C21.0366 78.1173 20.2766 75.4273 19.5166 72.7373C17.9966 67.3573 16.4766 61.9773 14.9666 56.5973C11.9266 45.8373 8.8966 35.0773 5.8566 24.3073C5.5166 23.0973 2.88661 14.0473 2.79661 12.7473C2.51661 8.62727 5.05665 4.84727 8.96665 3.53727C10.8166 2.91727 16.5666 2.88727 18.4166 3.17727C22.4966 3.80727 25.2566 6.80727 25.9866 10.7773C26.4266 13.1973 26.8766 15.6073 27.3166 18.0273C28.2066 22.8573 29.0866 27.6873 29.9766 32.5173C30.6066 35.9773 31.2466 39.4473 31.8766 42.9073C32.1966 44.6373 32.5066 46.3673 32.8266 48.1073C33.3666 51.0473 36.5266 52.6873 39.2366 51.3873C40.7866 50.6473 41.4266 49.6373 41.7566 48.0073C42.1166 46.2173 42.4766 44.4173 42.8366 42.6273C43.5566 39.0373 44.2766 35.4473 44.9966 31.8673C46.4366 24.6873 47.8866 17.5173 49.3266 10.3373C49.8966 7.47727 51.7866 5.10727 54.4366 3.89727C57.1866 2.64727 59.8466 3.07727 62.6166 3.07727C65.6566 3.07727 68.0166 3.55727 70.2366 5.91727C72.3566 8.15727 72.6666 10.8073 73.3866 13.4973C74.8166 18.8873 76.2366 24.2773 77.6666 29.6673C78.3766 32.3673 79.0866 35.0573 79.8066 37.7573C80.1766 39.1473 80.4766 40.3873 81.7466 41.3473C83.0066 42.3173 84.1266 42.5373 85.6666 42.1273C88.0966 41.4773 88.6366 39.8873 89.1666 37.7573C89.4366 36.6573 89.7066 35.5573 89.9766 34.4673C90.5166 32.2673 91.0666 30.0773 91.6066 27.8773C92.6966 23.4873 93.7766 19.0973 94.8666 14.6973C95.5066 12.1173 95.9466 8.73727 97.7766 6.45727C100.227 3.42727 102.977 3.07727 106.497 3.07727C107.987 3.07727 109.477 2.96727 110.977 3.12727C115.977 3.63727 119.607 8.10727 119.077 13.0973C118.967 14.1573 117.227 20.1373 116.937 21.1373C116.177 23.8273 115.417 26.5073 114.657 29.1973C113.137 34.5673 111.617 39.9473 110.097 45.3173C107.057 56.0673 104.017 66.8073 100.977 77.5573C100.237 80.1673 99.6566 82.8073 98.7466 85.3773C97.8166 87.9973 95.7366 90.0373 93.1066 90.9273C91.0466 91.6273 89.0366 91.4073 86.9766 91.4073C85.6466 91.4073 84.3266 91.4073 82.9966 91.4073C81.7966 91.4073 80.6266 91.4373 79.4366 91.1573C76.7266 90.5073 74.4666 88.6473 73.3066 86.1073C72.4466 84.2273 69.6866 73.9573 69.1266 72.0073C67.8466 67.5073 66.5466 63.0273 65.2466 58.5573Z" fill="white" stroke="#231F20" stroke-width="5" stroke-miterlimit="10"/>
<path d="M226.107 102.187C222.967 102.187 220.057 100.567 218.407 97.9072C216.617 95.0172 217.047 92.1772 217.047 89.1572C217.047 83.0872 217.047 77.0172 217.047 70.9472C217.047 58.8072 217.047 46.6672 217.047 34.5272C217.047 31.3672 217.047 28.2072 217.047 25.0472C217.047 21.6972 217.167 18.9172 219.897 16.3372C222.607 13.7872 225.457 13.8672 228.737 13.8672C231.397 13.8672 234.057 13.8572 236.717 13.8672C244.507 13.8872 252.247 13.9772 260.007 14.9972C264.387 15.5772 268.527 16.6172 272.597 18.3772C284.397 23.4572 292.057 32.9172 295.137 45.2672C297.927 56.4772 296.987 70.3272 291.387 80.7472C285.267 92.1372 274.797 98.4872 262.477 100.737C258.577 101.447 254.657 101.747 250.707 101.947C242.497 102.347 234.307 102.187 226.107 102.187ZM240.877 73.0872C240.877 76.9272 243.297 80.3472 246.917 81.6372C248.937 82.3572 250.797 82.1672 252.817 81.8672C258.417 81.0272 263.967 79.0972 267.687 74.2772C273.677 66.5172 273.557 49.5772 267.637 41.8272C263.947 36.9972 258.397 35.0472 252.807 34.1972C251.107 33.9372 249.407 33.7872 247.697 33.7072C246.757 33.6672 245.817 33.6472 244.867 33.6472C244.107 33.6472 243.337 33.6472 242.577 33.6472C242.197 33.6472 241.817 33.6472 241.427 33.6472C241.327 33.6472 241.237 33.6472 241.137 33.6472C241.047 33.6472 240.877 33.4972 240.877 33.6672C240.877 33.8572 240.877 34.0472 240.877 34.2372C240.877 35.7672 240.877 37.2972 240.877 38.8172C240.877 50.2572 240.877 61.6672 240.877 73.0872Z" fill="black"/>
<path d="M226.107 91.3873C222.967 91.3873 220.057 89.7673 218.407 87.1073C216.617 84.2173 217.047 81.3773 217.047 78.3573C217.047 72.2873 217.047 66.2173 217.047 60.1473C217.047 48.0073 217.047 35.8672 217.047 23.7272C217.047 20.5672 217.047 17.4072 217.047 14.2472C217.047 10.8972 217.167 8.11725 219.897 5.53725C222.607 2.98725 225.457 3.06725 228.737 3.06725C231.397 3.06725 234.057 3.05725 236.717 3.06725C244.507 3.08725 252.247 3.17725 260.007 4.19725C264.387 4.77725 268.527 5.81725 272.597 7.57725C284.397 12.6572 292.057 22.1173 295.137 34.4673C297.927 45.6773 296.987 59.5273 291.387 69.9473C285.267 81.3373 274.797 87.6873 262.477 89.9373C258.577 90.6473 254.657 90.9473 250.707 91.1473C242.497 91.5473 234.307 91.3873 226.107 91.3873ZM240.877 62.2873C240.877 66.1273 243.297 69.5472 246.917 70.8372C248.937 71.5572 250.797 71.3673 252.817 71.0673C258.417 70.2273 263.967 68.2973 267.687 63.4773C273.677 55.7173 273.557 38.7772 267.637 31.0272C263.947 26.1972 258.397 24.2473 252.807 23.3973C251.107 23.1373 249.407 22.9872 247.697 22.9072C246.757 22.8672 245.817 22.8472 244.867 22.8472C244.107 22.8472 243.337 22.8472 242.577 22.8472C242.197 22.8472 241.817 22.8472 241.427 22.8472C241.327 22.8472 241.237 22.8472 241.137 22.8472C241.047 22.8472 240.877 22.6972 240.877 22.8672C240.877 23.0572 240.877 23.2472 240.877 23.4372C240.877 24.9672 240.877 26.4973 240.877 28.0173C240.877 39.4473 240.877 50.8673 240.877 62.2873Z" fill="#F3C83A" stroke="#231F20" stroke-width="5" stroke-miterlimit="10"/>
<path d="M224.447 69.5473C224.447 74.0073 223.587 78.1773 221.857 82.0373C220.047 86.1373 217.577 89.6773 214.437 92.6573C210.897 95.9573 207.237 98.3473 203.457 99.8373C199.517 101.407 195.147 102.187 190.367 102.187C185.537 102.187 181.177 101.407 177.277 99.8373C173.297 98.2673 169.627 95.8873 166.267 92.6873C162.907 89.4873 160.487 85.9373 158.997 82.0373C157.267 78.2973 156.407 74.1373 156.407 69.5473C156.407 65.0873 157.267 60.8773 158.997 56.9373C160.607 52.9573 163.037 49.4173 166.297 46.3173C169.477 43.2573 173.137 40.9073 177.277 39.2573C181.217 37.7273 185.587 36.9673 190.367 36.9673C195.117 36.9673 199.477 37.7273 203.457 39.2573C207.597 40.9073 211.257 43.2573 214.437 46.3173C217.777 49.3373 220.247 52.8773 221.857 56.9373C223.577 60.8873 224.447 65.0873 224.447 69.5473ZM203.087 69.5473C203.087 64.9973 201.937 61.4273 199.647 58.8073C197.277 56.1973 194.177 54.8873 190.357 54.8873C186.417 54.8873 183.317 56.1973 181.067 58.8073C178.777 61.3373 177.627 64.9173 177.627 69.5473C177.627 74.0473 178.737 77.5873 180.947 80.1673C183.357 82.8173 186.497 84.1473 190.357 84.1473C194.217 84.1473 197.357 82.8173 199.767 80.1673C201.977 77.5173 203.087 73.9773 203.087 69.5473Z" fill="black"/>
<path d="M167.007 69.4773C167.007 73.9373 166.147 78.1073 164.417 81.9673C162.607 86.0673 160.137 89.6073 156.997 92.5873C153.457 95.8873 149.797 98.2773 146.017 99.7673C142.077 101.337 137.707 102.117 132.927 102.117C128.097 102.117 123.737 101.337 119.837 99.7673C115.857 98.1973 112.187 95.8173 108.827 92.6173C105.467 89.4173 103.047 85.8673 101.557 81.9673C99.8266 78.2273 98.9667 74.0673 98.9667 69.4773C98.9667 65.0173 99.8266 60.8073 101.557 56.8673C103.167 52.8873 105.597 49.3473 108.857 46.2473C112.037 43.1873 115.697 40.8373 119.837 39.1873C123.777 37.6573 128.147 36.8973 132.927 36.8973C137.677 36.8973 142.037 37.6573 146.017 39.1873C150.157 40.8373 153.817 43.1873 156.997 46.2473C160.337 49.2673 162.807 52.8073 164.417 56.8673C166.137 60.8073 167.007 65.0173 167.007 69.4773ZM145.647 69.4773C145.647 64.9273 144.497 61.3573 142.207 58.7373C139.837 56.1273 136.737 54.8173 132.917 54.8173C128.977 54.8173 125.877 56.1273 123.627 58.7373C121.337 61.2673 120.187 64.8473 120.187 69.4773C120.187 73.9773 121.297 77.5173 123.507 80.0973C125.917 82.7473 129.057 84.0773 132.917 84.0773C136.777 84.0773 139.917 82.7473 142.327 80.0973C144.547 77.4373 145.647 73.9073 145.647 69.4773Z" fill="black"/>
<path d="M167.007 58.6773C167.007 63.1373 166.147 67.3073 164.417 71.1673C162.607 75.2673 160.137 78.8073 156.997 81.7873C153.457 85.0873 149.797 87.4773 146.017 88.9673C142.077 90.5373 137.707 91.3173 132.927 91.3173C128.097 91.3173 123.737 90.5373 119.837 88.9673C115.857 87.3973 112.187 85.0173 108.827 81.8173C105.467 78.6173 103.047 75.0673 101.557 71.1673C99.8266 67.4273 98.9667 63.2673 98.9667 58.6773C98.9667 54.2173 99.8266 50.0073 101.557 46.0673C103.167 42.0873 105.597 38.5473 108.857 35.4473C112.037 32.3873 115.697 30.0373 119.837 28.3873C123.777 26.8573 128.147 26.0973 132.927 26.0973C137.677 26.0973 142.037 26.8573 146.017 28.3873C150.157 30.0373 153.817 32.3873 156.997 35.4473C160.337 38.4673 162.807 42.0073 164.417 46.0673C166.137 50.0073 167.007 54.2173 167.007 58.6773ZM145.647 58.6773C145.647 54.1273 144.497 50.5573 142.207 47.9373C139.837 45.3273 136.737 44.0173 132.917 44.0173C128.977 44.0173 125.877 45.3273 123.627 47.9373C121.337 50.4673 120.187 54.0473 120.187 58.6773C120.187 63.1773 121.297 66.7173 123.507 69.2973C125.917 71.9473 129.057 73.2773 132.917 73.2773C136.777 73.2773 139.917 71.9473 142.327 69.2973C144.547 66.6373 145.647 63.0973 145.647 58.6773Z" fill="white" stroke="#231F20" stroke-width="5" stroke-miterlimit="10"/>
<path d="M224.447 58.7473C224.447 63.2073 223.587 67.3773 221.857 71.2373C220.047 75.3373 217.577 78.8773 214.437 81.8573C210.897 85.1573 207.237 87.5473 203.457 89.0373C199.517 90.6073 195.147 91.3873 190.367 91.3873C185.537 91.3873 181.177 90.6073 177.277 89.0373C173.297 87.4673 169.627 85.0873 166.267 81.8873C162.907 78.6873 160.487 75.1373 158.997 71.2373C157.267 67.4973 156.407 63.3373 156.407 58.7473C156.407 54.2873 157.267 50.0773 158.997 46.1373C160.607 42.1573 163.037 38.6173 166.297 35.5173C169.477 32.4573 173.137 30.1073 177.277 28.4573C181.217 26.9273 185.587 26.1673 190.367 26.1673C195.117 26.1673 199.477 26.9273 203.457 28.4573C207.597 30.1073 211.257 32.4573 214.437 35.5173C217.777 38.5373 220.247 42.0773 221.857 46.1373C223.577 50.0873 224.447 54.2873 224.447 58.7473ZM203.087 58.7473C203.087 54.1973 201.937 50.6273 199.647 48.0073C197.277 45.3973 194.177 44.0873 190.357 44.0873C186.417 44.0873 183.317 45.3973 181.067 48.0073C178.777 50.5373 177.627 54.1173 177.627 58.7473C177.627 63.2473 178.737 66.7873 180.947 69.3673C183.357 72.0173 186.497 73.3473 190.357 73.3473C194.217 73.3473 197.357 72.0173 199.767 69.3673C201.977 66.7173 203.087 63.1773 203.087 58.7473Z" fill="white" stroke="#231F20" stroke-width="5" stroke-miterlimit="10"/>
<path d="M343.137 40.7573C346.717 40.7573 349.957 42.8572 351.417 46.1272C352.137 47.7372 352.207 49.3273 352.207 51.0273C352.207 52.7473 352.207 54.4573 352.207 56.1773C352.207 61.7873 352.247 67.3873 352.207 72.9973C352.177 77.0373 352.057 81.0173 351.197 85.0073C350.627 87.6873 349.587 90.0173 348.067 92.2773C344.537 97.5473 340.267 100.407 334.297 102.267C328.227 104.157 320.447 104.407 314.237 103.697C308.287 103.007 303.217 101.497 298.357 97.7172C294.587 94.7772 292.217 91.4772 290.747 86.9072C289.857 84.1272 289.597 81.3373 289.417 78.4673C289.087 73.3273 289.227 68.2073 289.227 63.0673C289.227 59.0173 289.227 54.9572 289.227 50.9072C289.227 48.5672 289.487 46.5573 290.927 44.5473C292.667 42.1073 295.397 40.7573 298.377 40.7573C301.847 40.7573 304.747 40.8173 307.387 43.7173C309.987 46.5773 309.747 49.5572 309.747 52.9172C309.747 54.7572 309.747 56.5873 309.747 58.4273C309.747 62.0973 309.747 65.7672 309.747 69.4472C309.747 73.1572 309.537 76.7973 310.557 80.4973C311.217 82.8773 312.647 85.3973 314.987 86.6173C317.447 87.8973 321.017 88.0073 323.607 87.4573C326.397 86.8673 328.157 85.7373 329.487 83.1373C331.587 79.0073 331.227 74.3773 331.227 70.1373C331.227 63.8973 331.227 57.6673 331.227 51.4273C331.227 48.0573 331.557 45.3873 334.367 42.9573C337.107 40.5873 339.947 40.7573 343.137 40.7573Z" fill="black"/>
<path d="M343.137 29.9573C346.717 29.9573 349.957 32.0573 351.417 35.3273C352.137 36.9373 352.207 38.5273 352.207 40.2273C352.207 41.9473 352.207 43.6573 352.207 45.3773C352.207 50.9873 352.247 56.5873 352.207 62.1973C352.177 66.2373 352.057 70.2173 351.197 74.2073C350.627 76.8873 349.587 79.2173 348.067 81.4773C344.537 86.7473 340.267 89.6073 334.297 91.4673C328.227 93.3573 320.447 93.6073 314.237 92.8973C308.287 92.2073 303.217 90.6973 298.357 86.9173C294.587 83.9773 292.217 80.6773 290.747 76.1073C289.857 73.3273 289.597 70.5373 289.417 67.6673C289.087 62.5273 289.227 57.4073 289.227 52.2673C289.227 48.2173 289.227 44.1573 289.227 40.1073C289.227 37.7673 289.487 35.7573 290.927 33.7473C292.667 31.3073 295.397 29.9573 298.377 29.9573C301.847 29.9573 304.747 30.0173 307.387 32.9173C309.987 35.7773 309.747 38.7573 309.747 42.1173C309.747 43.9573 309.747 45.7873 309.747 47.6273C309.747 51.2973 309.747 54.9673 309.747 58.6473C309.747 62.3573 309.537 65.9973 310.557 69.6973C311.217 72.0773 312.647 74.5973 314.987 75.8173C317.447 77.0973 321.017 77.2073 323.607 76.6573C326.397 76.0673 328.157 74.9373 329.487 72.3373C331.587 68.2073 331.227 63.5773 331.227 59.3373C331.227 53.0973 331.227 46.8673 331.227 40.6273C331.227 37.2573 331.557 34.5873 334.367 32.1573C337.107 29.7873 339.947 29.9573 343.137 29.9573Z" fill="white" stroke="#231F20" stroke-width="5" stroke-miterlimit="10"/>
</svg>
